<svg xmlns="http://www.w3.org/2000/svg" version="1.1" xmlns:xlink="http://www.w3.org/1999/xlink" xmlns:svgjs="http://svgjs.dev/svgjs" width="1440" height="560" preserveAspectRatio="none" viewBox="0 0 1440 560"><g mask="url(&quot;#SvgjsMask1061&quot;)" fill="none"><path d="M516.9918760389976 224.45431922388568L451.14872860504585 151.32809566799523 378.02250504915537 217.171243101947 443.86565248310717 290.29746665783745z" fill="rgba(28, 83, 142, 0.4)" class="triangle-float3"></path><path d="M-10.262736640383181-11.257507906946763L8.955659151105412 79.15793558956425 134.96962650012762 5.122620154075847z" fill="rgba(28, 83, 142, 0.4)" class="triangle-float1"></path><path d="M747.2,361.119C776.26,360.49,806.266,354.839,822.734,330.887C841.481,303.62,849.212,266.55,831.388,238.671C814.435,212.155,778.651,211.587,747.2,212.745C718.419,213.804,689.133,220.571,673.104,244.498C655.192,271.237,648.523,307.12,665.782,334.285C682.206,360.136,716.58,361.782,747.2,361.119" fill="rgba(28, 83, 142, 0.4)" class="triangle-float2"></path><path d="M179.84,446.789C223.817,445.647,248.692,401.735,270.627,363.602C292.473,325.624,317.032,282.531,296.631,243.757C275.316,203.245,225.616,190.729,179.84,191.052C134.734,191.371,87.903,206.025,65.872,245.386C44.232,284.05,58.677,329.979,80.498,368.541C102.748,407.861,134.676,447.962,179.84,446.789" fill="rgba(28, 83, 142, 0.4)" class="triangle-float2"></path><path d="M878.577,442.903C894.912,443.529,914.07,444.98,922.8,431.159C931.858,416.819,924.864,398.462,915.639,384.229C907.333,371.415,893.844,362.596,878.577,362.934C863.844,363.26,851.787,373.144,844.25,385.808C836.502,398.825,832.056,414.997,839.861,427.979C847.499,440.684,863.764,442.335,878.577,442.903" fill="rgba(28, 83, 142, 0.4)" class="triangle-float3"></path><path d="M143.011,126.432C157.68,125.971,172.644,120.491,179.467,107.498C185.939,95.174,180.435,80.911,173.143,69.054C166.287,57.907,156.071,49.059,143.011,48.222C128.355,47.283,113.437,52.447,105.357,64.711C96.451,78.228,93.932,96.1,102.362,109.919C110.526,123.3,127.344,126.924,143.011,126.432" fill="rgba(28, 83, 142, 0.4)" class="triangle-float1"></path><path d="M819.0185655007168 32.00169859109849L684.8787576543521 78.18973847397157 731.0667975372252 212.3295463203363 865.2066053835899 166.14150643746322z" fill="rgba(28, 83, 142, 0.4)" class="triangle-float3"></path><path d="M1288.4336555609657 377.4265347851818L1222.2456782101644 315.70524738462177 1160.5243908096045 381.893224735423 1226.7123681604057 443.61451213598303z" fill="rgba(28, 83, 142, 0.4)" class="triangle-float1"></path><path d="M885.73,608.956C931.523,605.015,968.534,577.68,993.943,539.38C1023.244,495.214,1052.978,441.522,1027.726,394.922C1001.792,347.063,940.138,338.004,885.73,339.68C834.822,341.248,786.155,360.706,758.116,403.225C726.818,450.685,709.633,512.961,739.6,561.272C768.548,607.94,831.015,613.665,885.73,608.956" fill="rgba(28, 83, 142, 0.4)" class="triangle-float3"></path><path d="M410.3129448396645 66.25021005321227L319.16121487338245-10.23517294266604 242.67583187750412 80.91655702361604 333.8275618437862 157.40194001949436z" fill="rgba(28, 83, 142, 0.4)" class="triangle-float3"></path></g><defs><mask id="SvgjsMask1061"><rect width="1440" height="560" fill="#ffffff"></rect></mask><style>
                @keyframes float1 {
                    0%{transform: translate(0, 0)}
                    50%{transform: translate(-10px, 0)}
                    100%{transform: translate(0, 0)}
                }

                .triangle-float1 {
                    animation: float1 5s infinite;
                }

                @keyframes float2 {
                    0%{transform: translate(0, 0)}
                    50%{transform: translate(-5px, -5px)}
                    100%{transform: translate(0, 0)}
                }

                .triangle-float2 {
                    animation: float2 4s infinite;
                }

                @keyframes float3 {
                    0%{transform: translate(0, 0)}
                    50%{transform: translate(0, -10px)}
                    100%{transform: translate(0, 0)}
                }

                .triangle-float3 {
                    animation: float3 6s infinite;
                }
            </style></defs></svg>